<?xml version="1.0" encoding="utf-8" ?>
<svg baseProfile="full" height="400px" version="1.1" width="400px" xmlns="http://www.w3.org/2000/svg" xmlns:ev="http://www.w3.org/2001/xml-events" xmlns:xlink="http://www.w3.org/1999/xlink"><defs /><rect fill="black" height="100%" width="100%" x="0" y="0" /><path d="M 200,180 L 200.0,60.0 A 120,120 0 0,1 217.70241062359614,61.312912841735 Z" fill="#FF0000" stroke="black" stroke-width="1" /><path d="M 200,180 L 217.70241062359614,61.312912841735 A 120,120 0 0,1 240.48015937924518,67.03382498893349 Z" fill="#621fa5" stroke="black" stroke-width="1" /><path d="M 200,180 L 240.48015937924518,67.03382498893349 A 120,120 0 0,1 279.26446509431065,89.9048027178318 Z" fill="#C71585" stroke="black" stroke-width="1" /><path d="M 200,180 L 279.26446509431065,89.9048027178318 A 120,120 0 0,1 305.49136972482853,122.80235220238919 Z" fill="#1D76DB" stroke="black" stroke-width="1" /><path d="M 200,180 L 305.49136972482853,122.80235220238919 A 120,120 0 0,1 318.3443333717569,199.86501343554738 Z" fill="#e08a1e" stroke="black" stroke-width="1" /><path d="M 200,180 L 318.3443333717569,199.86501343554738 A 120,120 0 0,1 253.25458499323057,287.5358041640029 Z" fill="#FBCA04" stroke="black" stroke-width="1" /><path d="M 200,180 L 253.25458499323057,287.5358041640029 A 120,120 0 1,1 199.99999999999997,60.0 Z" fill="#0E8A16" stroke="black" stroke-width="1" /><rect fill="#FF0000" height="15" width="15" x="40" y="330" /><text alignment-baseline="middle" fill="white" font-size="12px" x="65" y="342">Nothing (71)</text><rect fill="#621fa5" height="15" width="15" x="40" y="350" /><text alignment-baseline="middle" fill="white" font-size="12px" x="65" y="362">Bootable (94)</text><rect fill="#C71585" height="15" width="15" x="40" y="370" /><text alignment-baseline="middle" fill="white" font-size="12px" x="65" y="382">Intro (181)</text><rect fill="#1D76DB" height="15" width="15" x="40" y="390" /><text alignment-baseline="middle" fill="white" font-size="12px" x="65" y="402">Menu (169)</text><rect fill="#e08a1e" height="15" width="15" x="40" y="410" /><text alignment-baseline="middle" fill="white" font-size="12px" x="65" y="422">Ingame - (318)</text><rect fill="#FBCA04" height="15" width="15" x="40" y="430" /><text alignment-baseline="middle" fill="white" font-size="12px" x="65" y="442">Ingame + (453)</text><rect fill="#0E8A16" height="15" width="15" x="40" y="450" /><text alignment-baseline="middle" fill="white" font-size="12px" x="65" y="462">Playable (1727)</text></svg>